<svg width="124" height="206" viewBox="0 0 124 206" fill="none" xmlns="http://www.w3.org/2000/svg">
<path fill-rule="evenodd" clip-rule="evenodd" d="M3.0256 151.353C20.0842 138.335 -13.9031 126.271 -0.411541 112.268C37.3992 73.0251 -14.1608 70.7979 8.18199 49.3145C43.069 15.7693 123.67 102.888 123.67 118.317C123.67 132.728 118.227 141.614 102.759 151.353C87.2912 161.092 76.4824 168.048 69.3738 179.692C62.3706 191.163 50.8619 206 21.9314 206C11.6135 206 -29.9154 201.417 -33.9254 187.668C-37.1107 176.746 -7.85922 159.66 3.0256 151.353Z" fill="#FACC15"/>
<g clip-path="url(#clip0_1_1483)">
<path d="M12.2771 47.149L13.4144 46.5511L13.1972 47.8176L14.1177 48.7145L12.846 48.8993L12.2771 50.0518L11.7083 48.8993L10.4367 48.7145L11.357 47.8176L11.1396 46.5511L12.2771 47.149Z" fill="#FB923C"/>
</g>
<g clip-path="url(#clip1_1_1483)">
<path d="M14.0143 121.467L14.9079 120.997L14.7372 121.992L15.4604 122.697L14.4613 122.842L14.0143 123.748L13.5674 122.842L12.5682 122.697L13.2913 121.992L13.1205 120.997L14.0143 121.467Z" fill="#FB923C"/>
</g>
<g clip-path="url(#clip2_1_1483)">
<path d="M4.84416 65.2426C5.35295 65.2426 5.76538 65.6551 5.76538 66.1639C5.76538 66.6727 5.35295 67.0851 4.84416 67.0851C4.33537 67.0851 3.92294 66.6727 3.92294 66.1639C3.92294 65.6551 4.33537 65.2426 4.84416 65.2426Z" fill="#FB923C"/>
</g>
<g clip-path="url(#clip3_1_1483)">
<path d="M5.31217 29.5773C5.89364 29.5773 6.36499 30.0487 6.36499 30.6302C6.36499 31.2116 5.89364 31.683 5.31217 31.683C4.7307 31.683 4.25935 31.2116 4.25935 30.6302C4.25935 30.0487 4.7307 29.5773 5.31217 29.5773Z" fill="#FB923C"/>
</g>
<g clip-path="url(#clip4_1_1483)">
<path d="M10.8558 162.625C11.6554 162.625 12.3035 163.273 12.3035 164.073C12.3035 164.872 11.6554 165.52 10.8558 165.52C10.0563 165.52 9.40821 164.872 9.40821 164.073C9.40821 163.273 10.0563 162.625 10.8558 162.625Z" fill="#FB923C"/>
</g>
<g clip-path="url(#clip5_1_1483)">
<path d="M10.698 91.3813C10.9887 91.3813 11.2244 91.617 11.2244 91.9077C11.2244 92.1985 10.9887 92.4341 10.698 92.4341C10.4072 92.4341 10.1715 92.1985 10.1715 91.9077C10.1715 91.617 10.4072 91.3813 10.698 91.3813Z" fill="#FB923C"/>
</g>
<path d="M-0.159432 132.616V133.603C-0.159432 133.655 -0.138634 133.705 -0.101614 133.742C-0.0645934 133.779 -0.0143828 133.8 0.037972 133.8C0.0903267 133.8 0.140537 133.779 0.177558 133.742C0.214578 133.705 0.235376 133.655 0.235376 133.603V132.616H1.2224C1.27475 132.616 1.32496 132.595 1.36198 132.558C1.399 132.521 1.4198 132.471 1.4198 132.418C1.4198 132.366 1.399 132.316 1.36198 132.279C1.32496 132.242 1.27475 132.221 1.2224 132.221H0.235376V131.234C0.235376 131.182 0.214578 131.131 0.177558 131.094C0.140537 131.057 0.0903267 131.037 0.037972 131.037C-0.0143828 131.037 -0.0645934 131.057 -0.101614 131.094C-0.138634 131.131 -0.159432 131.182 -0.159432 131.234V132.221H-1.14645C-1.19881 132.221 -1.24902 132.242 -1.28604 132.279C-1.32306 132.316 -1.34386 132.366 -1.34386 132.418C-1.34386 132.471 -1.32306 132.521 -1.28604 132.558C-1.24902 132.595 -1.19881 132.616 -1.14645 132.616H-0.159432Z" fill="#FB923C"/>
<g clip-path="url(#clip6_1_1483)">
<path d="M5.18106 109.977V110.504C5.18106 110.532 5.19215 110.559 5.21189 110.578C5.23164 110.598 5.25842 110.609 5.28634 110.609C5.31426 110.609 5.34104 110.598 5.36079 110.578C5.38053 110.559 5.39162 110.532 5.39162 110.504V109.977H5.91803C5.94596 109.977 5.97273 109.966 5.99248 109.947C6.01222 109.927 6.02332 109.9 6.02332 109.872C6.02332 109.844 6.01222 109.818 5.99248 109.798C5.97273 109.778 5.94596 109.767 5.91803 109.767H5.39162V109.241C5.39162 109.213 5.38053 109.186 5.36079 109.166C5.34104 109.146 5.31426 109.135 5.28634 109.135C5.25842 109.135 5.23164 109.146 5.21189 109.166C5.19215 109.186 5.18106 109.213 5.18106 109.241V109.767H4.65465C4.62673 109.767 4.59995 109.778 4.5802 109.798C4.56046 109.818 4.54937 109.844 4.54937 109.872C4.54937 109.9 4.56046 109.927 4.5802 109.947C4.59995 109.966 4.62673 109.977 4.65465 109.977H5.18106Z" fill="#FB923C"/>
</g>
<g clip-path="url(#clip7_1_1483)">
<path d="M0.0538754 13.0443V13.8339C0.0538754 13.8758 0.0705136 13.916 0.10013 13.9456C0.129746 13.9752 0.169915 13.9918 0.211799 13.9918C0.253682 13.9918 0.293851 13.9752 0.323467 13.9456C0.353083 13.916 0.369722 13.8758 0.369722 13.8339V13.0443H1.15934C1.20122 13.0443 1.24139 13.0276 1.27101 12.998C1.30062 12.9684 1.31726 12.9282 1.31726 12.8864C1.31726 12.8445 1.30062 12.8043 1.27101 12.7747C1.24139 12.7451 1.20122 12.7284 1.15934 12.7284H0.369722V11.9388C0.369722 11.8969 0.353083 11.8568 0.323467 11.8272C0.293851 11.7975 0.253682 11.7809 0.211799 11.7809C0.169915 11.7809 0.129746 11.7975 0.10013 11.8272C0.0705136 11.8568 0.0538754 11.8969 0.0538754 11.9388V12.7284H-0.735741C-0.777624 12.7284 -0.817793 12.7451 -0.847409 12.7747C-0.877026 12.8043 -0.893664 12.8445 -0.893664 12.8864C-0.893664 12.9282 -0.877026 12.9684 -0.847409 12.998C-0.817793 13.0276 -0.777624 13.0443 -0.735741 13.0443H0.0538754Z" fill="#FB923C"/>
</g>
<path d="M3.96361 181.473L3.26578 182.171C3.24693 182.19 3.23189 182.211 3.22155 182.235C3.2112 182.26 3.20575 182.285 3.20553 182.312C3.2053 182.338 3.21029 182.364 3.22022 182.388C3.23014 182.412 3.2448 182.434 3.26334 182.453C3.28187 182.471 3.30391 182.486 3.32817 182.496C3.35243 182.506 3.37843 182.511 3.40464 182.511C3.43085 182.511 3.45675 182.505 3.48084 182.495C3.50492 182.484 3.5267 182.469 3.54491 182.45L4.24293 181.753L4.94076 182.45C4.95897 182.469 4.98075 182.484 5.00483 182.495C5.02892 182.505 5.05482 182.511 5.08103 182.511C5.10724 182.511 5.13324 182.506 5.1575 182.496C5.18176 182.486 5.2038 182.471 5.22233 182.453C5.24087 182.434 5.25553 182.412 5.26545 182.388C5.27538 182.364 5.28037 182.338 5.28014 182.312C5.27992 182.285 5.27447 182.26 5.26412 182.235C5.25378 182.211 5.23874 182.19 5.21989 182.171L4.52206 181.474L5.21989 180.776C5.23874 180.757 5.25378 180.736 5.26412 180.711C5.27447 180.687 5.27992 180.661 5.28014 180.635C5.28037 180.609 5.27538 180.583 5.26545 180.559C5.25553 180.535 5.24087 180.512 5.22233 180.494C5.2038 180.475 5.18176 180.461 5.1575 180.451C5.13324 180.441 5.10724 180.436 5.08103 180.436C5.05482 180.436 5.02892 180.442 5.00483 180.452C4.98075 180.462 4.95897 180.478 4.94076 180.496L4.24293 181.194L3.54491 180.496C3.5267 180.478 3.50492 180.462 3.48084 180.452C3.45675 180.442 3.43085 180.436 3.40464 180.436C3.37843 180.436 3.35243 180.441 3.32817 180.451C3.30391 180.461 3.28187 180.475 3.26334 180.494C3.2448 180.512 3.23014 180.535 3.22022 180.559C3.21029 180.583 3.2053 180.609 3.20553 180.635C3.20575 180.661 3.2112 180.687 3.22155 180.711C3.23189 180.736 3.24693 180.757 3.26578 180.776L3.96361 181.474V181.473Z" fill="#FB923C"/>
<defs>
<clipPath id="clip0_1_1483">
<rect width="4.42185" height="4.42185" fill="white" transform="matrix(-1 0 0 -1 14.488 50.5352)"/>
</clipPath>
<clipPath id="clip1_1_1483">
<rect width="3.47431" height="3.47431" fill="white" transform="matrix(-1 0 0 -1 15.7515 124.127)"/>
</clipPath>
<clipPath id="clip2_1_1483">
<rect width="2.21092" height="2.21092" fill="white" transform="matrix(-1 0 0 -1 5.94958 67.2753)"/>
</clipPath>
<clipPath id="clip3_1_1483">
<rect width="2.52677" height="2.52677" fill="white" transform="matrix(-1 0 0 -1 6.57556 31.9004)"/>
</clipPath>
<clipPath id="clip4_1_1483">
<rect width="3.47431" height="3.47431" fill="white" transform="matrix(-1 0 0 -1 12.593 165.819)"/>
</clipPath>
<clipPath id="clip5_1_1483">
<rect width="1.26339" height="1.26339" fill="white" transform="matrix(-1 0 0 -1 11.3296 92.5428)"/>
</clipPath>
<clipPath id="clip6_1_1483">
<rect width="2.52677" height="2.52677" fill="white" transform="matrix(-1 0 0 -1 6.5918 111.178)"/>
</clipPath>
<clipPath id="clip7_1_1483">
<rect width="3.79016" height="3.79016" fill="white" transform="matrix(-1 0 0 -1 2.17004 14.8446)"/>
</clipPath>
</defs>
</svg>
