<svg width="24" height="25" viewBox="0 0 24 25" fill="none" xmlns="http://www.w3.org/2000/svg">
<path d="M15.586 10.673L11.636 6.72303C11.4538 6.53443 11.353 6.28183 11.3553 6.01963C11.3576 5.75743 11.4628 5.50662 11.6482 5.32121C11.8336 5.13581 12.0844 5.03064 12.3466 5.02836C12.6088 5.02608 12.8614 5.12687 13.05 5.30903L18.707 10.966C18.8002 11.0587 18.8741 11.1688 18.9246 11.2902C18.9751 11.4115 19.001 11.5416 19.001 11.673C19.001 11.8044 18.9751 11.9346 18.9246 12.0559C18.8741 12.1772 18.8002 12.2874 18.707 12.38L13.05 18.037C12.9578 18.1325 12.8474 18.2087 12.7254 18.2611C12.6034 18.3135 12.4722 18.3411 12.3394 18.3423C12.2066 18.3434 12.0749 18.3181 11.952 18.2679C11.8291 18.2176 11.7175 18.1433 11.6236 18.0494C11.5297 17.9555 11.4555 17.8439 11.4052 17.721C11.3549 17.5981 11.3296 17.4664 11.3307 17.3336C11.3319 17.2009 11.3595 17.0696 11.4119 16.9476C11.4643 16.8256 11.5405 16.7153 11.636 16.623L15.586 12.673H6C5.73478 12.673 5.48043 12.5677 5.29289 12.3801C5.10536 12.1926 5 11.9382 5 11.673C5 11.4078 5.10536 11.1535 5.29289 10.9659C5.48043 10.7784 5.73478 10.673 6 10.673H15.586Z" fill="#2563EB"/>
</svg>
