<svg width="24" height="25" viewBox="0 0 24 25" fill="none" xmlns="http://www.w3.org/2000/svg">
<path d="M10.486 16.746C10.3547 16.7463 10.2247 16.7206 10.1034 16.6705C9.98206 16.6204 9.87182 16.5468 9.779 16.454L5.537 12.211C5.44143 12.1188 5.36517 12.0085 5.31267 11.8866C5.26018 11.7646 5.2325 11.6334 5.23126 11.5006C5.23001 11.3679 5.25522 11.2362 5.30541 11.1132C5.35561 10.9903 5.42978 10.8786 5.52361 10.7846C5.61743 10.6907 5.72903 10.6163 5.85189 10.566C5.97475 10.5156 6.10641 10.4902 6.23919 10.4913C6.37197 10.4923 6.5032 10.5198 6.62525 10.5721C6.74729 10.6245 6.85768 10.7006 6.95 10.796L10.485 14.331L16.85 7.96801C17.0375 7.78037 17.2919 7.6749 17.5571 7.6748C17.8224 7.67471 18.0769 7.78 18.2645 7.96751C18.4521 8.15502 18.5576 8.40938 18.5577 8.67465C18.5578 8.93992 18.4525 9.19437 18.265 9.38201L11.193 16.454C11.1002 16.5468 10.9899 16.6204 10.8686 16.6705C10.7473 16.7206 10.6173 16.7463 10.486 16.746Z" fill="#0F172A"/>
</svg>
