<svg width="66" height="67" viewBox="0 0 66 67" fill="none" xmlns="http://www.w3.org/2000/svg">
<rect x="0.5" y="1.03235" width="65" height="65" rx="14.5" fill="white"/>
<rect x="0.5" y="1.03235" width="65" height="65" rx="14.5" stroke="#CBD5E1"/>
<g filter="url(#filter0_ii_1_1201)">
<path d="M50.5999 16.4657H15.3999C13.9272 16.4657 12.7333 17.6596 12.7333 19.1324V43.6657C12.7333 45.1385 13.9272 46.3324 15.3999 46.3324H50.5999C52.0727 46.3324 53.2666 45.1385 53.2666 43.6657V19.1324C53.2666 17.6596 52.0727 16.4657 50.5999 16.4657Z" fill="#8E592D"/>
</g>
<g filter="url(#filter1_i_1_1201)">
<path fill-rule="evenodd" clip-rule="evenodd" d="M27.2089 46.2998C27.2089 46.2998 29.1252 39.045 32.8177 39.045C36.51 39.045 38.4264 46.3537 38.4264 46.3537L27.2089 46.2998Z" fill="black" fill-opacity="0.01"/>
</g>
<g filter="url(#filter2_i_1_1201)">
<path fill-rule="evenodd" clip-rule="evenodd" d="M43.667 39.9324C46.6124 39.9324 49.0003 37.5446 49.0003 34.5991C49.0003 31.6536 46.6124 29.2657 43.667 29.2657C40.7215 29.2657 38.3336 31.6536 38.3336 34.5991C38.3336 37.5446 40.7215 39.9324 43.667 39.9324Z" fill="black" fill-opacity="0.01"/>
</g>
<g filter="url(#filter3_i_1_1201)">
<path fill-rule="evenodd" clip-rule="evenodd" d="M22.3333 39.9324C25.2788 39.9324 27.6667 37.5446 27.6667 34.5991C27.6667 31.6536 25.2788 29.2657 22.3333 29.2657C19.3878 29.2657 17 31.6536 17 34.5991C17 37.5446 19.3878 39.9324 22.3333 39.9324Z" fill="black" fill-opacity="0.01"/>
</g>
<g filter="url(#filter4_ii_1_1201)">
<path fill-rule="evenodd" clip-rule="evenodd" d="M53.2681 19.6656C55.0347 19.6656 56.4667 21.0956 56.4667 22.8668V47.3979C56.4667 49.1658 55.0336 50.599 53.2662 50.599H41.6252C41.035 50.599 40.3466 50.1692 40.0896 49.6431L36.276 41.8375C34.4667 38.1343 31.4376 38.087 29.5079 41.7364L25.321 49.6548C25.0453 50.1763 24.3474 50.599 23.7588 50.599H12.7383C10.9682 50.599 9.53333 49.1691 9.53333 47.3979V22.8668C9.53333 21.0988 10.97 19.6656 12.7318 19.6656H12.9679H53.2681ZM22.3333 39.9323C25.2788 39.9323 27.6667 37.5445 27.6667 34.599C27.6667 31.6535 25.2788 29.2656 22.3333 29.2656C19.3878 29.2656 17 31.6535 17 34.599C17 37.5445 19.3878 39.9323 22.3333 39.9323ZM43.6667 39.9323C46.6122 39.9323 49 37.5445 49 34.599C49 31.6535 46.6122 29.2656 43.6667 29.2656C40.7212 29.2656 38.3333 31.6535 38.3333 34.599C38.3333 37.5445 40.7212 39.9323 43.6667 39.9323Z" fill="#D89E4E"/>
</g>
<defs>
<filter id="filter0_ii_1_1201" x="12.7333" y="15.4657" width="40.5333" height="31.8667" filterUnits="userSpaceOnUse" color-interpolation-filters="sRGB">
<feFlood flood-opacity="0" result="BackgroundImageFix"/>
<feBlend mode="normal" in="SourceGraphic" in2="BackgroundImageFix" result="shape"/>
<feColorMatrix in="SourceAlpha" type="matrix" values="0 0 0 0 0 0 0 0 0 0 0 0 0 0 0 0 0 0 127 0" result="hardAlpha"/>
<feOffset dy="1"/>
<feGaussianBlur stdDeviation="2"/>
<feComposite in2="hardAlpha" operator="arithmetic" k2="-1" k3="1"/>
<feColorMatrix type="matrix" values="0 0 0 0 0.6 0 0 0 0 0.411765 0 0 0 0 0.258824 0 0 0 1 0"/>
<feBlend mode="normal" in2="shape" result="effect1_innerShadow_1_1201"/>
<feColorMatrix in="SourceAlpha" type="matrix" values="0 0 0 0 0 0 0 0 0 0 0 0 0 0 0 0 0 0 127 0" result="hardAlpha"/>
<feOffset dy="-1"/>
<feGaussianBlur stdDeviation="2"/>
<feComposite in2="hardAlpha" operator="arithmetic" k2="-1" k3="1"/>
<feColorMatrix type="matrix" values="0 0 0 0 0.517647 0 0 0 0 0.317647 0 0 0 0 0.160784 0 0 0 1 0"/>
<feBlend mode="normal" in2="effect1_innerShadow_1_1201" result="effect2_innerShadow_1_1201"/>
</filter>
<filter id="filter1_i_1_1201" x="27.2089" y="39.045" width="11.2175" height="9.30872" filterUnits="userSpaceOnUse" color-interpolation-filters="sRGB">
<feFlood flood-opacity="0" result="BackgroundImageFix"/>
<feBlend mode="normal" in="SourceGraphic" in2="BackgroundImageFix" result="shape"/>
<feColorMatrix in="SourceAlpha" type="matrix" values="0 0 0 0 0 0 0 0 0 0 0 0 0 0 0 0 0 0 127 0" result="hardAlpha"/>
<feOffset dy="2"/>
<feGaussianBlur stdDeviation="1"/>
<feComposite in2="hardAlpha" operator="arithmetic" k2="-1" k3="1"/>
<feColorMatrix type="matrix" values="0 0 0 0 0 0 0 0 0 0 0 0 0 0 0 0 0 0 0.2 0"/>
<feBlend mode="normal" in2="shape" result="effect1_innerShadow_1_1201"/>
</filter>
<filter id="filter2_i_1_1201" x="38.3336" y="29.2657" width="10.6666" height="11.6666" filterUnits="userSpaceOnUse" color-interpolation-filters="sRGB">
<feFlood flood-opacity="0" result="BackgroundImageFix"/>
<feBlend mode="normal" in="SourceGraphic" in2="BackgroundImageFix" result="shape"/>
<feColorMatrix in="SourceAlpha" type="matrix" values="0 0 0 0 0 0 0 0 0 0 0 0 0 0 0 0 0 0 127 0" result="hardAlpha"/>
<feOffset dy="1"/>
<feGaussianBlur stdDeviation="2"/>
<feComposite in2="hardAlpha" operator="arithmetic" k2="-1" k3="1"/>
<feColorMatrix type="matrix" values="0 0 0 0 0 0 0 0 0 0 0 0 0 0 0 0 0 0 0.25 0"/>
<feBlend mode="normal" in2="shape" result="effect1_innerShadow_1_1201"/>
</filter>
<filter id="filter3_i_1_1201" x="17" y="29.2657" width="10.6666" height="11.6666" filterUnits="userSpaceOnUse" color-interpolation-filters="sRGB">
<feFlood flood-opacity="0" result="BackgroundImageFix"/>
<feBlend mode="normal" in="SourceGraphic" in2="BackgroundImageFix" result="shape"/>
<feColorMatrix in="SourceAlpha" type="matrix" values="0 0 0 0 0 0 0 0 0 0 0 0 0 0 0 0 0 0 127 0" result="hardAlpha"/>
<feOffset dy="1"/>
<feGaussianBlur stdDeviation="2"/>
<feComposite in2="hardAlpha" operator="arithmetic" k2="-1" k3="1"/>
<feColorMatrix type="matrix" values="0 0 0 0 0 0 0 0 0 0 0 0 0 0 0 0 0 0 0.25 0"/>
<feBlend mode="normal" in2="shape" result="effect1_innerShadow_1_1201"/>
</filter>
<filter id="filter4_ii_1_1201" x="9.53333" y="18.6656" width="46.9333" height="32.9333" filterUnits="userSpaceOnUse" color-interpolation-filters="sRGB">
<feFlood flood-opacity="0" result="BackgroundImageFix"/>
<feBlend mode="normal" in="SourceGraphic" in2="BackgroundImageFix" result="shape"/>
<feColorMatrix in="SourceAlpha" type="matrix" values="0 0 0 0 0 0 0 0 0 0 0 0 0 0 0 0 0 0 127 0" result="hardAlpha"/>
<feOffset dy="1"/>
<feGaussianBlur stdDeviation="2"/>
<feComposite in2="hardAlpha" operator="arithmetic" k2="-1" k3="1"/>
<feColorMatrix type="matrix" values="0 0 0 0 0.862745 0 0 0 0 0.654902 0 0 0 0 0.372549 0 0 0 1 0"/>
<feBlend mode="normal" in2="shape" result="effect1_innerShadow_1_1201"/>
<feColorMatrix in="SourceAlpha" type="matrix" values="0 0 0 0 0 0 0 0 0 0 0 0 0 0 0 0 0 0 127 0" result="hardAlpha"/>
<feOffset dy="-1"/>
<feGaussianBlur stdDeviation="2"/>
<feComposite in2="hardAlpha" operator="arithmetic" k2="-1" k3="1"/>
<feColorMatrix type="matrix" values="0 0 0 0 0.811765 0 0 0 0 0.584314 0 0 0 0 0.270588 0 0 0 1 0"/>
<feBlend mode="normal" in2="effect1_innerShadow_1_1201" result="effect2_innerShadow_1_1201"/>
</filter>
</defs>
</svg>
