<svg width="66" height="67" viewBox="0 0 66 67" fill="none" xmlns="http://www.w3.org/2000/svg">
<rect x="0.5" y="1.03235" width="65" height="65" rx="14.5" fill="white"/>
<rect x="0.5" y="1.03235" width="65" height="65" rx="14.5" stroke="#CBD5E1"/>
<path fill-rule="evenodd" clip-rule="evenodd" d="M24.1024 44.7274C24.1024 44.7274 27.2922 41.2053 32.6085 41.2053C37.9248 41.2053 41.52 44.7274 41.52 44.7274L32.8112 54.2522L24.1024 44.7274ZM19.235 40.028C19.235 40.028 24.8462 34.4061 32.811 34.3539C40.7758 34.3011 46.555 40.028 46.555 40.028L51.5987 34.3533C51.5987 34.3533 43.4974 26.8408 32.811 26.8931C22.1246 26.9459 13.9811 34.6691 13.9811 34.6691L19.235 40.028ZM9.67287 29.4677C9.67287 29.4677 20.1177 20.2208 32.811 20.2208C45.5043 20.2208 56.0119 29.4677 56.0119 29.4677L61.0557 23.9509C61.0557 23.9509 48.6041 12.7605 32.7902 12.8128C16.9758 12.8656 4.94434 24.1088 4.94434 24.1088L9.67287 29.4677Z" fill="url(#paint0_linear_1_1200)"/>
<defs>
<linearGradient id="paint0_linear_1_1200" x1="4.94434" y1="12.8126" x2="4.94434" y2="54.2522" gradientUnits="userSpaceOnUse">
<stop stop-color="#19DEFE"/>
<stop offset="1" stop-color="#1E5BEF"/>
</linearGradient>
</defs>
</svg>
